<svg width="392" height="61" viewBox="0 0 392 61" fill="none" xmlns="http://www.w3.org/2000/svg">
<path d="M9.432 1.49V3.164H6.102V14H4.05V3.164H0.702V1.49H9.432ZM21.5002 1.49V14H19.4482V8.528H13.5622V14H11.5102V1.49H13.5622V6.854H19.4482V1.49H21.5002ZM26.2536 3.146V6.818H30.5736V8.492H26.2536V12.326H31.1136V14H24.2016V1.472H31.1136V3.146H26.2536ZM51.4928 1.49V14H49.4408V5.432L45.6248 14H44.2028L40.3688 5.432V14H38.3168V1.49H40.5308L44.9228 11.3L49.2968 1.49H51.4928ZM56.2418 3.146V6.818H60.5618V8.492H56.2418V12.326H61.1018V14H54.1898V1.472H61.1018V3.146H56.2418ZM65.6813 3.146V6.818H70.0013V8.492H65.6813V12.326H70.5413V14H63.6293V1.472H70.5413V3.146H65.6813ZM81.1508 1.49V3.164H77.8208V14H75.7688V3.164H72.4208V1.49H81.1508ZM101.081 1.49V14H99.0287V5.432L95.2127 14H93.7907L89.9567 5.432V14H87.9047V1.49H90.1187L94.5107 11.3L98.8847 1.49H101.081ZM109.484 14.126C108.32 14.126 107.246 13.856 106.262 13.316C105.29 12.764 104.516 12.002 103.94 11.03C103.376 10.046 103.094 8.942 103.094 7.718C103.094 6.494 103.376 5.396 103.94 4.424C104.516 3.452 105.29 2.696 106.262 2.156C107.246 1.604 108.32 1.328 109.484 1.328C110.66 1.328 111.734 1.604 112.706 2.156C113.69 2.696 114.464 3.452 115.028 4.424C115.592 5.396 115.874 6.494 115.874 7.718C115.874 8.942 115.592 10.046 115.028 11.03C114.464 12.002 113.69 12.764 112.706 13.316C111.734 13.856 110.66 14.126 109.484 14.126ZM109.484 12.344C110.312 12.344 111.05 12.158 111.698 11.786C112.346 11.402 112.85 10.862 113.21 10.166C113.582 9.458 113.768 8.642 113.768 7.718C113.768 6.794 113.582 5.984 113.21 5.288C112.85 4.592 112.346 4.058 111.698 3.686C111.05 3.314 110.312 3.128 109.484 3.128C108.656 3.128 107.918 3.314 107.27 3.686C106.622 4.058 106.112 4.592 105.74 5.288C105.38 5.984 105.2 6.794 105.2 7.718C105.2 8.642 105.38 9.458 105.74 10.166C106.112 10.862 106.622 11.402 107.27 11.786C107.918 12.158 108.656 12.344 109.484 12.344ZM131.069 1.49V14H129.017V5.432L125.201 14H123.779L119.945 5.432V14H117.893V1.49H120.107L124.499 11.3L128.873 1.49H131.069ZM135.818 3.146V6.818H140.138V8.492H135.818V12.326H140.678V14H133.766V1.472H140.678V3.146H135.818ZM153.483 14H151.431L145.257 4.658V14H143.205V1.472H145.257L151.431 10.796V1.472H153.483V14ZM164.26 1.49V3.164H160.93V14H158.878V3.164H155.53V1.49H164.26ZM171.878 11.21C173.03 10.214 173.936 9.398 174.596 8.762C175.268 8.114 175.826 7.442 176.27 6.746C176.714 6.05 176.936 5.354 176.936 4.658C176.936 3.938 176.762 3.374 176.414 2.966C176.078 2.558 175.544 2.354 174.812 2.354C174.104 2.354 173.552 2.582 173.156 3.038C172.772 3.482 172.568 4.082 172.544 4.838H170.564C170.6 3.47 171.008 2.426 171.788 1.706C172.58 0.974 173.582 0.608 174.794 0.608C176.102 0.608 177.122 0.968 177.854 1.688C178.598 2.408 178.97 3.368 178.97 4.568C178.97 5.432 178.748 6.266 178.304 7.07C177.872 7.862 177.35 8.576 176.738 9.212C176.138 9.836 175.37 10.562 174.434 11.39L173.624 12.11H179.33V13.82H170.582V12.326L171.878 11.21ZM189.593 2.642H183.563V6.224C183.815 5.888 184.187 5.606 184.679 5.378C185.183 5.15 185.717 5.036 186.281 5.036C187.289 5.036 188.105 5.252 188.729 5.684C189.365 6.116 189.815 6.662 190.079 7.322C190.355 7.982 190.493 8.678 190.493 9.41C190.493 10.298 190.319 11.09 189.971 11.786C189.635 12.47 189.125 13.01 188.441 13.406C187.769 13.802 186.941 14 185.957 14C184.649 14 183.599 13.676 182.807 13.028C182.015 12.38 181.541 11.522 181.385 10.454H183.383C183.515 11.018 183.809 11.468 184.265 11.804C184.721 12.128 185.291 12.29 185.975 12.29C186.827 12.29 187.463 12.032 187.883 11.516C188.315 11 188.531 10.316 188.531 9.464C188.531 8.6 188.315 7.94 187.883 7.484C187.451 7.016 186.815 6.782 185.975 6.782C185.387 6.782 184.889 6.932 184.481 7.232C184.085 7.52 183.797 7.916 183.617 8.42H181.673V0.842H189.593V2.642ZM202.169 1.49L198.029 9.464V14H195.977V9.464L191.819 1.49H194.105L197.003 7.628L199.901 1.49H202.169ZM205.849 3.146V6.818H210.169V8.492H205.849V12.326H210.709V14H203.797V1.472H210.709V3.146H205.849ZM220.779 11.444H215.541L214.641 14H212.499L216.981 1.472H219.357L223.839 14H221.679L220.779 11.444ZM220.203 9.77L218.169 3.956L216.117 9.77H220.203ZM232.286 14L229.406 8.996H227.84V14H225.788V1.49H230.108C231.068 1.49 231.878 1.658 232.538 1.994C233.21 2.33 233.708 2.78 234.032 3.344C234.368 3.908 234.536 4.538 234.536 5.234C234.536 6.05 234.296 6.794 233.816 7.466C233.348 8.126 232.622 8.576 231.638 8.816L234.734 14H232.286ZM227.84 7.358H230.108C230.876 7.358 231.452 7.166 231.836 6.782C232.232 6.398 232.43 5.882 232.43 5.234C232.43 4.586 232.238 4.082 231.854 3.722C231.47 3.35 230.888 3.164 230.108 3.164H227.84V7.358ZM241.283 14.126C240.443 14.126 239.687 13.982 239.015 13.694C238.343 13.394 237.815 12.974 237.431 12.434C237.047 11.894 236.855 11.264 236.855 10.544H239.051C239.099 11.084 239.309 11.528 239.681 11.876C240.065 12.224 240.599 12.398 241.283 12.398C241.991 12.398 242.543 12.23 242.939 11.894C243.335 11.546 243.533 11.102 243.533 10.562C243.533 10.142 243.407 9.8 243.155 9.536C242.915 9.272 242.609 9.068 242.237 8.924C241.877 8.78 241.373 8.624 240.725 8.456C239.909 8.24 239.243 8.024 238.727 7.808C238.223 7.58 237.791 7.232 237.431 6.764C237.071 6.296 236.891 5.672 236.891 4.892C236.891 4.172 237.071 3.542 237.431 3.002C237.791 2.462 238.295 2.048 238.943 1.76C239.591 1.472 240.341 1.328 241.193 1.328C242.405 1.328 243.395 1.634 244.163 2.246C244.943 2.846 245.375 3.674 245.459 4.73H243.191C243.155 4.274 242.939 3.884 242.543 3.56C242.147 3.236 241.625 3.074 240.977 3.074C240.389 3.074 239.909 3.224 239.537 3.524C239.165 3.824 238.979 4.256 238.979 4.82C238.979 5.204 239.093 5.522 239.321 5.774C239.561 6.014 239.861 6.206 240.221 6.35C240.581 6.494 241.073 6.65 241.697 6.818C242.525 7.046 243.197 7.274 243.713 7.502C244.241 7.73 244.685 8.084 245.045 8.564C245.417 9.032 245.603 9.662 245.603 10.454C245.603 11.09 245.429 11.69 245.081 12.254C244.745 12.818 244.247 13.274 243.587 13.622C242.939 13.958 242.171 14.126 241.283 14.126ZM258.406 14.126C257.242 14.126 256.168 13.856 255.184 13.316C254.212 12.764 253.438 12.002 252.862 11.03C252.298 10.046 252.016 8.942 252.016 7.718C252.016 6.494 252.298 5.396 252.862 4.424C253.438 3.452 254.212 2.696 255.184 2.156C256.168 1.604 257.242 1.328 258.406 1.328C259.582 1.328 260.656 1.604 261.628 2.156C262.612 2.696 263.386 3.452 263.95 4.424C264.514 5.396 264.796 6.494 264.796 7.718C264.796 8.942 264.514 10.046 263.95 11.03C263.386 12.002 262.612 12.764 261.628 13.316C260.656 13.856 259.582 14.126 258.406 14.126ZM258.406 12.344C259.234 12.344 259.972 12.158 260.62 11.786C261.268 11.402 261.772 10.862 262.132 10.166C262.504 9.458 262.69 8.642 262.69 7.718C262.69 6.794 262.504 5.984 262.132 5.288C261.772 4.592 261.268 4.058 260.62 3.686C259.972 3.314 259.234 3.128 258.406 3.128C257.578 3.128 256.84 3.314 256.192 3.686C255.544 4.058 255.034 4.592 254.662 5.288C254.302 5.984 254.122 6.794 254.122 7.718C254.122 8.642 254.302 9.458 254.662 10.166C255.034 10.862 255.544 11.402 256.192 11.786C256.84 12.158 257.578 12.344 258.406 12.344ZM274.177 1.49V3.164H268.867V6.854H273.007V8.528H268.867V14H266.815V1.49H274.177ZM12.88 60.28C9.6 60.28 6.90667 59.5067 4.8 57.96C2.69333 56.3867 1.56 54.1467 1.4 51.24H9.76C9.84 52.2267 10.1333 52.9467 10.64 53.4C11.1467 53.8533 11.8 54.08 12.6 54.08C13.32 54.08 13.9067 53.9067 14.36 53.56C14.84 53.1867 15.08 52.68 15.08 52.04C15.08 51.2133 14.6933 50.5733 13.92 50.12C13.1467 49.6667 11.8933 49.16 10.16 48.6C8.32 47.9867 6.82667 47.4 5.68 46.84C4.56 46.2533 3.57333 45.4133 2.72 44.32C1.89333 43.2 1.48 41.7467 1.48 39.96C1.48 38.1467 1.93333 36.6 2.84 35.32C3.74667 34.0133 5 33.0267 6.6 32.36C8.2 31.6933 10.0133 31.36 12.04 31.36C15.32 31.36 17.9333 32.1333 19.88 33.68C21.8533 35.2 22.9067 37.3467 23.04 40.12H14.52C14.4933 39.2667 14.2267 38.6267 13.72 38.2C13.24 37.7733 12.6133 37.56 11.84 37.56C11.2533 37.56 10.7733 37.7333 10.4 38.08C10.0267 38.4267 9.84 38.92 9.84 39.56C9.84 40.0933 10.04 40.56 10.44 40.96C10.8667 41.3333 11.3867 41.6667 12 41.96C12.6133 42.2267 13.52 42.5733 14.72 43C16.5067 43.6133 17.9733 44.2267 19.12 44.84C20.2933 45.4267 21.2933 46.2667 22.12 47.36C22.9733 48.4267 23.4 49.7867 23.4 51.44C23.4 53.12 22.9733 54.6267 22.12 55.96C21.2933 57.2933 20.08 58.3467 18.48 59.12C16.9067 59.8933 15.04 60.28 12.88 60.28ZM48.2847 31.8V38.04H40.7647V60H32.9247V38.04H25.4847V31.8H48.2847ZM69.0253 55.4H59.0253L57.5053 60H49.2653L59.5453 31.8H68.5853L78.8253 60H70.5453L69.0253 55.4ZM67.0653 49.4L64.0253 40.28L61.0253 49.4H67.0653ZM95.6606 60L90.0606 49.6H89.2206V60H81.3806V31.8H93.7406C96.0073 31.8 97.9273 32.2 99.5006 33C101.074 33.7733 102.261 34.8533 103.061 36.24C103.861 37.6 104.261 39.1333 104.261 40.84C104.261 42.76 103.727 44.4533 102.661 45.92C101.621 47.36 100.087 48.3867 98.0606 49L104.421 60H95.6606ZM89.2206 44.24H93.1006C94.1673 44.24 94.9673 43.9867 95.5006 43.48C96.034 42.9733 96.3006 42.24 96.3006 41.28C96.3006 40.3733 96.0206 39.6667 95.4606 39.16C94.9273 38.6267 94.1406 38.36 93.1006 38.36H89.2206V44.24ZM125.826 45.52C127.479 45.8933 128.786 46.72 129.746 48C130.733 49.2533 131.226 50.6933 131.226 52.32C131.226 54.72 130.399 56.6 128.746 57.96C127.093 59.32 124.773 60 121.786 60H107.826V31.8H121.346C124.226 31.8 126.479 32.44 128.106 33.72C129.759 35 130.586 36.8 130.586 39.12C130.586 40.7733 130.146 42.16 129.266 43.28C128.413 44.3733 127.266 45.12 125.826 45.52ZM115.666 43H119.626C121.599 43 122.586 42.1867 122.586 40.56C122.586 38.88 121.599 38.04 119.626 38.04H115.666V43ZM120.226 53.68C122.199 53.68 123.186 52.8533 123.186 51.2C123.186 50.3467 122.919 49.6933 122.386 49.24C121.879 48.7867 121.146 48.56 120.186 48.56H115.666V53.68H120.226ZM142.342 31.8V48.16C142.342 49.68 142.689 50.8533 143.382 51.68C144.102 52.5067 145.182 52.92 146.622 52.92C148.062 52.92 149.142 52.5067 149.862 51.68C150.609 50.8267 150.982 49.6533 150.982 48.16V31.8H158.822V48.16C158.822 50.7467 158.275 52.96 157.182 54.8C156.089 56.6133 154.595 57.9867 152.702 58.92C150.835 59.8267 148.755 60.28 146.462 60.28C144.169 60.28 142.115 59.8267 140.302 58.92C138.515 57.9867 137.102 56.6133 136.062 54.8C135.049 52.9867 134.542 50.7733 134.542 48.16V31.8H142.342ZM162.178 45.84C162.178 43.0667 162.752 40.6 163.898 38.44C165.072 36.2533 166.725 34.56 168.858 33.36C170.992 32.1333 173.445 31.52 176.218 31.52C179.738 31.52 182.698 32.4667 185.098 34.36C187.498 36.2267 189.045 38.7733 189.738 42H181.298C180.792 40.9333 180.085 40.12 179.178 39.56C178.298 39 177.272 38.72 176.098 38.72C174.285 38.72 172.832 39.3733 171.738 40.68C170.672 41.96 170.138 43.68 170.138 45.84C170.138 48.0267 170.672 49.7733 171.738 51.08C172.832 52.36 174.285 53 176.098 53C177.272 53 178.298 52.72 179.178 52.16C180.085 51.6 180.792 50.7867 181.298 49.72H189.738C189.045 52.9467 187.498 55.5067 185.098 57.4C182.698 59.2667 179.738 60.2 176.218 60.2C173.445 60.2 170.992 59.6 168.858 58.4C166.725 57.1733 165.072 55.48 163.898 53.32C162.752 51.1333 162.178 48.64 162.178 45.84ZM210.131 60L201.291 47.64V60H193.451V31.8H201.291V43.96L210.051 31.8H219.091L208.731 45.48L219.611 60H210.131ZM233.114 60.28C229.834 60.28 227.141 59.5067 225.034 57.96C222.928 56.3867 221.794 54.1467 221.634 51.24H229.994C230.074 52.2267 230.368 52.9467 230.874 53.4C231.381 53.8533 232.034 54.08 232.834 54.08C233.554 54.08 234.141 53.9067 234.594 53.56C235.074 53.1867 235.314 52.68 235.314 52.04C235.314 51.2133 234.928 50.5733 234.154 50.12C233.381 49.6667 232.128 49.16 230.394 48.6C228.554 47.9867 227.061 47.4 225.914 46.84C224.794 46.2533 223.808 45.4133 222.954 44.32C222.128 43.2 221.714 41.7467 221.714 39.96C221.714 38.1467 222.168 36.6 223.074 35.32C223.981 34.0133 225.234 33.0267 226.834 32.36C228.434 31.6933 230.248 31.36 232.274 31.36C235.554 31.36 238.168 32.1333 240.114 33.68C242.088 35.2 243.141 37.3467 243.274 40.12H234.754C234.728 39.2667 234.461 38.6267 233.954 38.2C233.474 37.7733 232.848 37.56 232.074 37.56C231.488 37.56 231.008 37.7333 230.634 38.08C230.261 38.4267 230.074 38.92 230.074 39.56C230.074 40.0933 230.274 40.56 230.674 40.96C231.101 41.3333 231.621 41.6667 232.234 41.96C232.848 42.2267 233.754 42.5733 234.954 43C236.741 43.6133 238.208 44.2267 239.354 44.84C240.528 45.4267 241.528 46.2667 242.354 47.36C243.208 48.4267 243.634 49.7867 243.634 51.44C243.634 53.12 243.208 54.6267 242.354 55.96C241.528 57.2933 240.314 58.3467 238.714 59.12C237.141 59.8933 235.274 60.28 233.114 60.28ZM271.615 60L262.775 47.64V60H254.935V31.8H262.775V43.96L271.535 31.8H280.575L270.215 45.48L281.095 60H271.615ZM297.479 60.28C294.839 60.28 292.412 59.6667 290.199 58.44C287.985 57.1867 286.225 55.4667 284.919 53.28C283.639 51.0667 282.999 48.5733 282.999 45.8C282.999 43.0267 283.639 40.5467 284.919 38.36C286.225 36.1467 287.985 34.4267 290.199 33.2C292.412 31.9733 294.839 31.36 297.479 31.36C300.145 31.36 302.572 31.9733 304.759 33.2C306.972 34.4267 308.719 36.1467 309.999 38.36C311.279 40.5467 311.919 43.0267 311.919 45.8C311.919 48.5733 311.279 51.0667 309.999 53.28C308.719 55.4667 306.972 57.1867 304.759 58.44C302.545 59.6667 300.119 60.28 297.479 60.28ZM297.479 53C299.479 53 301.052 52.3467 302.199 51.04C303.372 49.7333 303.959 47.9867 303.959 45.8C303.959 43.56 303.372 41.8 302.199 40.52C301.052 39.2133 299.479 38.56 297.479 38.56C295.452 38.56 293.865 39.2133 292.719 40.52C291.572 41.8 290.999 43.56 290.999 45.8C290.999 48.0133 291.572 49.7733 292.719 51.08C293.865 52.36 295.452 53 297.479 53ZM329.723 60L324.123 49.6H323.283V60H315.443V31.8H327.803C330.07 31.8 331.99 32.2 333.563 33C335.136 33.7733 336.323 34.8533 337.123 36.24C337.923 37.6 338.323 39.1333 338.323 40.84C338.323 42.76 337.79 44.4533 336.723 45.92C335.683 47.36 334.15 48.3867 332.123 49L338.483 60H329.723ZM323.283 44.24H327.163C328.23 44.24 329.03 43.9867 329.563 43.48C330.096 42.9733 330.363 42.24 330.363 41.28C330.363 40.3733 330.083 39.6667 329.523 39.16C328.99 38.6267 328.203 38.36 327.163 38.36H323.283V44.24ZM349.728 38.08V42.68H358.728V48.64H349.728V53.72H359.928V60H341.888V31.8H359.928V38.08H349.728ZM381.643 55.4H371.643L370.123 60H361.883L372.163 31.8H381.203L391.443 60H383.163L381.643 55.4ZM379.683 49.4L376.643 40.28L373.643 49.4H379.683Z" fill="#026141"/>
</svg>
