<svg width="431" height="142" viewBox="0 0 431 142" fill="none" xmlns="http://www.w3.org/2000/svg">
<path d="M3.9 128.3C6.16667 126.5 7.2 125.667 7 125.8C13.5333 120.4 18.6667 115.967 22.4 112.5C26.2 109.033 29.4 105.4 32 101.6C34.6 97.8 35.9 94.1 35.9 90.5C35.9 87.7667 35.2667 85.6333 34 84.1C32.7333 82.5667 30.8333 81.8 28.3 81.8C25.7667 81.8 23.7667 82.7667 22.3 84.7C20.9 86.5667 20.2 89.2333 20.2 92.7H3.7C3.83333 87.0333 5.03333 82.3 7.3 78.5C9.63333 74.7 12.6667 71.9 16.4 70.1C20.2 68.3 24.4 67.4 29 67.4C36.9333 67.4 42.9 69.4333 46.9 73.5C50.9667 77.5667 53 82.8667 53 89.4C53 96.5333 50.5667 103.167 45.7 109.3C40.8333 115.367 34.6333 121.3 27.1 127.1H54.1V141H3.9V128.3ZM113.029 83.9H81.8289V97.7C83.1622 96.2333 85.0289 95.0333 87.4289 94.1C89.8289 93.1667 92.4289 92.7 95.2289 92.7C100.229 92.7 104.362 93.8333 107.629 96.1C110.962 98.3667 113.396 101.3 114.929 104.9C116.462 108.5 117.229 112.4 117.229 116.6C117.229 124.4 115.029 130.6 110.629 135.2C106.229 139.733 100.029 142 92.0289 142C86.6956 142 82.0622 141.1 78.1289 139.3C74.1956 137.433 71.1622 134.867 69.0289 131.6C66.8956 128.333 65.7289 124.567 65.5289 120.3H82.2289C82.6289 122.367 83.5956 124.1 85.1289 125.5C86.6622 126.833 88.7622 127.5 91.4289 127.5C94.5622 127.5 96.8956 126.5 98.4289 124.5C99.9622 122.5 100.729 119.833 100.729 116.5C100.729 113.233 99.9289 110.733 98.3289 109C96.7289 107.267 94.3956 106.4 91.3289 106.4C89.0622 106.4 87.1956 106.967 85.7289 108.1C84.2622 109.167 83.2956 110.6 82.8289 112.4H66.3289V68.9H113.029V83.9Z" fill="white"/>
<path d="M149.08 77.696L141.816 91.584V100H138.904V91.584L131.608 77.696H134.84L140.344 88.992L145.848 77.696H149.08ZM155.064 80.064V87.52H163.192V89.92H155.064V97.6H164.152V100H152.152V77.664H164.152V80.064H155.064ZM181.742 95.04H172.014L170.222 100H167.15L175.214 77.824H178.574L186.606 100H183.534L181.742 95.04ZM180.91 92.672L176.878 81.408L172.846 92.672H180.91ZM201.864 100L196.552 90.88H193.032V100H190.12V77.696H197.32C199.006 77.696 200.424 77.984 201.576 78.56C202.75 79.136 203.624 79.9147 204.2 80.896C204.776 81.8773 205.064 82.9973 205.064 84.256C205.064 85.792 204.616 87.1467 203.72 88.32C202.846 89.4933 201.523 90.272 199.752 90.656L205.352 100H201.864ZM193.032 88.544H197.32C198.899 88.544 200.083 88.16 200.872 87.392C201.662 86.6027 202.056 85.5573 202.056 84.256C202.056 82.9333 201.662 81.9093 200.872 81.184C200.104 80.4587 198.92 80.096 197.32 80.096H193.032V88.544ZM216.661 100.224C215.189 100.224 213.866 99.968 212.693 99.456C211.541 98.9227 210.634 98.1973 209.973 97.28C209.312 96.3413 208.97 95.264 208.949 94.048H212.053C212.16 95.0933 212.586 95.9787 213.333 96.704C214.101 97.408 215.21 97.76 216.661 97.76C218.048 97.76 219.136 97.4187 219.925 96.736C220.736 96.032 221.141 95.136 221.141 94.048C221.141 93.1947 220.906 92.5013 220.437 91.968C219.968 91.4347 219.381 91.0293 218.677 90.752C217.973 90.4747 217.024 90.176 215.829 89.856C214.357 89.472 213.173 89.088 212.277 88.704C211.402 88.32 210.645 87.7227 210.005 86.912C209.386 86.08 209.077 84.9707 209.077 83.584C209.077 82.368 209.386 81.2907 210.005 80.352C210.624 79.4133 211.488 78.688 212.597 78.176C213.728 77.664 215.018 77.408 216.469 77.408C218.56 77.408 220.266 77.9307 221.589 78.976C222.933 80.0213 223.69 81.408 223.861 83.136H220.661C220.554 82.2827 220.106 81.536 219.317 80.896C218.528 80.2347 217.482 79.904 216.181 79.904C214.965 79.904 213.973 80.224 213.205 80.864C212.437 81.4827 212.053 82.3573 212.053 83.488C212.053 84.2987 212.277 84.96 212.725 85.472C213.194 85.984 213.76 86.3787 214.421 86.656C215.104 86.912 216.053 87.2107 217.269 87.552C218.741 87.9573 219.925 88.3627 220.821 88.768C221.717 89.152 222.485 89.76 223.125 90.592C223.765 91.4027 224.085 92.512 224.085 93.92C224.085 95.008 223.797 96.032 223.221 96.992C222.645 97.952 221.792 98.7307 220.661 99.328C219.53 99.9253 218.197 100.224 216.661 100.224Z" fill="white"/>
<path d="M140.536 135.224C139.064 135.224 137.741 134.968 136.568 134.456C135.416 133.923 134.509 133.197 133.848 132.28C133.187 131.341 132.845 130.264 132.824 129.048H135.928C136.035 130.093 136.461 130.979 137.208 131.704C137.976 132.408 139.085 132.76 140.536 132.76C141.923 132.76 143.011 132.419 143.8 131.736C144.611 131.032 145.016 130.136 145.016 129.048C145.016 128.195 144.781 127.501 144.312 126.968C143.843 126.435 143.256 126.029 142.552 125.752C141.848 125.475 140.899 125.176 139.704 124.856C138.232 124.472 137.048 124.088 136.152 123.704C135.277 123.32 134.52 122.723 133.88 121.912C133.261 121.08 132.952 119.971 132.952 118.584C132.952 117.368 133.261 116.291 133.88 115.352C134.499 114.413 135.363 113.688 136.472 113.176C137.603 112.664 138.893 112.408 140.344 112.408C142.435 112.408 144.141 112.931 145.464 113.976C146.808 115.021 147.565 116.408 147.736 118.136H144.536C144.429 117.283 143.981 116.536 143.192 115.896C142.403 115.235 141.357 114.904 140.056 114.904C138.84 114.904 137.848 115.224 137.08 115.864C136.312 116.483 135.928 117.357 135.928 118.488C135.928 119.299 136.152 119.96 136.6 120.472C137.069 120.984 137.635 121.379 138.296 121.656C138.979 121.912 139.928 122.211 141.144 122.552C142.616 122.957 143.8 123.363 144.696 123.768C145.592 124.152 146.36 124.76 147 125.592C147.64 126.403 147.96 127.512 147.96 128.92C147.96 130.008 147.672 131.032 147.096 131.992C146.52 132.952 145.667 133.731 144.536 134.328C143.405 134.925 142.072 135.224 140.536 135.224ZM165.973 112.696V115.064H159.893V135H156.981V115.064H150.869V112.696H165.973ZM182.742 130.04H173.014L171.222 135H168.15L176.214 112.824H179.574L187.606 135H184.534L182.742 130.04ZM181.91 127.672L177.878 116.408L173.846 127.672H181.91ZM202.864 135L197.552 125.88H194.032V135H191.12V112.696H198.32C200.006 112.696 201.424 112.984 202.576 113.56C203.75 114.136 204.624 114.915 205.2 115.896C205.776 116.877 206.064 117.997 206.064 119.256C206.064 120.792 205.616 122.147 204.72 123.32C203.846 124.493 202.523 125.272 200.752 125.656L206.352 135H202.864ZM194.032 123.544H198.32C199.899 123.544 201.083 123.16 201.872 122.392C202.662 121.603 203.056 120.557 203.056 119.256C203.056 117.933 202.662 116.909 201.872 116.184C201.104 115.459 199.92 115.096 198.32 115.096H194.032V123.544ZM221.757 123.512C222.568 123.64 223.304 123.971 223.965 124.504C224.648 125.037 225.181 125.699 225.565 126.488C225.97 127.277 226.173 128.12 226.173 129.016C226.173 130.147 225.885 131.171 225.309 132.088C224.733 132.984 223.89 133.699 222.781 134.232C221.693 134.744 220.402 135 218.909 135H210.589V112.696H218.589C220.104 112.696 221.394 112.952 222.461 113.464C223.528 113.955 224.328 114.627 224.861 115.48C225.394 116.333 225.661 117.293 225.661 118.36C225.661 119.683 225.298 120.781 224.573 121.656C223.869 122.509 222.93 123.128 221.757 123.512ZM213.501 122.328H218.397C219.762 122.328 220.818 122.008 221.565 121.368C222.312 120.728 222.685 119.843 222.685 118.712C222.685 117.581 222.312 116.696 221.565 116.056C220.818 115.416 219.741 115.096 218.333 115.096H213.501V122.328ZM218.653 132.6C220.104 132.6 221.234 132.259 222.045 131.576C222.856 130.893 223.261 129.944 223.261 128.728C223.261 127.491 222.834 126.52 221.981 125.816C221.128 125.091 219.986 124.728 218.557 124.728H213.501V132.6H218.653ZM233.062 112.696V126.808C233.062 128.792 233.542 130.264 234.502 131.224C235.483 132.184 236.838 132.664 238.566 132.664C240.273 132.664 241.606 132.184 242.566 131.224C243.547 130.264 244.038 128.792 244.038 126.808V112.696H246.95V126.776C246.95 128.632 246.577 130.2 245.83 131.48C245.083 132.739 244.07 133.677 242.79 134.296C241.531 134.915 240.113 135.224 238.534 135.224C236.955 135.224 235.526 134.915 234.246 134.296C232.987 133.677 231.985 132.739 231.238 131.48C230.513 130.2 230.15 128.632 230.15 126.776V112.696H233.062ZM250.72 123.832C250.72 121.656 251.21 119.704 252.192 117.976C253.173 116.227 254.506 114.861 256.192 113.88C257.898 112.899 259.786 112.408 261.856 112.408C264.288 112.408 266.41 112.995 268.224 114.168C270.037 115.341 271.36 117.005 272.192 119.16H268.704C268.085 117.816 267.189 116.781 266.016 116.056C264.864 115.331 263.477 114.968 261.856 114.968C260.298 114.968 258.901 115.331 257.664 116.056C256.426 116.781 255.456 117.816 254.752 119.16C254.048 120.483 253.696 122.04 253.696 123.832C253.696 125.603 254.048 127.16 254.752 128.504C255.456 129.827 256.426 130.851 257.664 131.576C258.901 132.301 260.298 132.664 261.856 132.664C263.477 132.664 264.864 132.312 266.016 131.608C267.189 130.883 268.085 129.848 268.704 128.504H272.192C271.36 130.637 270.037 132.291 268.224 133.464C266.41 134.616 264.288 135.192 261.856 135.192C259.786 135.192 257.898 134.712 256.192 133.752C254.506 132.771 253.173 131.416 252.192 129.688C251.21 127.96 250.72 126.008 250.72 123.832ZM288.623 135L279.439 124.824V135H276.527V112.696H279.439V123.032L288.655 112.696H292.335L282.223 123.864L292.431 135H288.623ZM302.755 135.224C301.283 135.224 299.96 134.968 298.787 134.456C297.635 133.923 296.728 133.197 296.067 132.28C295.405 131.341 295.064 130.264 295.043 129.048H298.147C298.253 130.093 298.68 130.979 299.427 131.704C300.195 132.408 301.304 132.76 302.755 132.76C304.141 132.76 305.229 132.419 306.019 131.736C306.829 131.032 307.235 130.136 307.235 129.048C307.235 128.195 307 127.501 306.531 126.968C306.061 126.435 305.475 126.029 304.771 125.752C304.067 125.475 303.117 125.176 301.923 124.856C300.451 124.472 299.267 124.088 298.371 123.704C297.496 123.32 296.739 122.723 296.099 121.912C295.48 121.08 295.171 119.971 295.171 118.584C295.171 117.368 295.48 116.291 296.099 115.352C296.717 114.413 297.581 113.688 298.691 113.176C299.821 112.664 301.112 112.408 302.563 112.408C304.653 112.408 306.36 112.931 307.683 113.976C309.027 115.021 309.784 116.408 309.955 118.136H306.755C306.648 117.283 306.2 116.536 305.411 115.896C304.621 115.235 303.576 114.904 302.275 114.904C301.059 114.904 300.067 115.224 299.299 115.864C298.531 116.483 298.147 117.357 298.147 118.488C298.147 119.299 298.371 119.96 298.819 120.472C299.288 120.984 299.853 121.379 300.515 121.656C301.197 121.912 302.147 122.211 303.363 122.552C304.835 122.957 306.019 123.363 306.915 123.768C307.811 124.152 308.579 124.76 309.219 125.592C309.859 126.403 310.179 127.512 310.179 128.92C310.179 130.008 309.891 131.032 309.315 131.992C308.739 132.952 307.885 133.731 306.755 134.328C305.624 134.925 304.291 135.224 302.755 135.224ZM335.091 135L325.907 124.824V135H322.995V112.696H325.907V123.032L335.123 112.696H338.803L328.691 123.864L338.899 135H335.091ZM352.264 135.224C350.194 135.224 348.306 134.744 346.6 133.784C344.893 132.803 343.538 131.448 342.536 129.72C341.554 127.971 341.064 126.008 341.064 123.832C341.064 121.656 341.554 119.704 342.536 117.976C343.538 116.227 344.893 114.872 346.6 113.912C348.306 112.931 350.194 112.44 352.264 112.44C354.354 112.44 356.253 112.931 357.96 113.912C359.666 114.872 361.01 116.216 361.992 117.944C362.973 119.672 363.464 121.635 363.464 123.832C363.464 126.029 362.973 127.992 361.992 129.72C361.01 131.448 359.666 132.803 357.96 133.784C356.253 134.744 354.354 135.224 352.264 135.224ZM352.264 132.696C353.821 132.696 355.218 132.333 356.456 131.608C357.714 130.883 358.696 129.848 359.4 128.504C360.125 127.16 360.488 125.603 360.488 123.832C360.488 122.04 360.125 120.483 359.4 119.16C358.696 117.816 357.725 116.781 356.488 116.056C355.25 115.331 353.842 114.968 352.264 114.968C350.685 114.968 349.277 115.331 348.04 116.056C346.802 116.781 345.821 117.816 345.096 119.16C344.392 120.483 344.04 122.04 344.04 123.832C344.04 125.603 344.392 127.16 345.096 128.504C345.821 129.848 346.802 130.883 348.04 131.608C349.298 132.333 350.706 132.696 352.264 132.696ZM379.052 135L373.74 125.88H370.22V135H367.308V112.696H374.508C376.193 112.696 377.612 112.984 378.764 113.56C379.937 114.136 380.812 114.915 381.388 115.896C381.964 116.877 382.252 117.997 382.252 119.256C382.252 120.792 381.804 122.147 380.908 123.32C380.033 124.493 378.71 125.272 376.94 125.656L382.54 135H379.052ZM370.22 123.544H374.508C376.086 123.544 377.27 123.16 378.06 122.392C378.849 121.603 379.244 120.557 379.244 119.256C379.244 117.933 378.849 116.909 378.06 116.184C377.292 115.459 376.108 115.096 374.508 115.096H370.22V123.544ZM389.689 115.064V122.52H397.817V124.92H389.689V132.6H398.777V135H386.777V112.664H398.777V115.064H389.689ZM416.367 130.04H406.639L404.847 135H401.775L409.839 112.824H413.199L421.231 135H418.159L416.367 130.04ZM415.535 127.672L411.503 116.408L407.471 127.672H415.535Z" fill="white"/>
<path d="M0 40H431" stroke="white"/>
<path d="M16.626 1.234V3.206H10.03V25H7.65V3.206H1.02V1.234H16.626ZM46.8701 1.234V25H44.4901V13.882H31.6041V25H29.2241V1.234H31.6041V11.91H44.4901V1.234H46.8701ZM63.5202 3.172V12.046H72.5302V14.018H63.5202V23.028H73.5502V25H61.1402V1.2H73.5502V3.172H63.5202ZM128.472 1.54V25H126.092V6.266L117.728 25H115.994L107.63 6.334V25H105.25V1.54H107.766L116.844 21.872L125.922 1.54H128.472ZM145.091 3.172V12.046H154.101V14.018H145.091V23.028H155.121V25H142.711V1.2H155.121V3.172H145.091ZM171.031 3.172V12.046H180.041V14.018H171.031V23.028H181.061V25H168.651V1.2H181.061V3.172H171.031ZM208.496 1.234V3.206H201.9V25H199.52V3.206H192.89V1.234H208.496ZM262.486 1.54V25H260.106V6.266L251.742 25H250.008L241.644 6.334V25H239.264V1.54H241.78L250.858 21.872L259.936 1.54H262.486ZM287.401 25.238C285.203 25.238 283.208 24.728 281.417 23.708C279.627 22.6653 278.21 21.226 277.167 19.39C276.147 17.5313 275.637 15.4347 275.637 13.1C275.637 10.7653 276.147 8.68 277.167 6.844C278.21 4.98533 279.627 3.546 281.417 2.526C283.208 1.48333 285.203 0.961999 287.401 0.961999C289.623 0.961999 291.629 1.48333 293.419 2.526C295.21 3.546 296.615 4.98533 297.635 6.844C298.655 8.68 299.165 10.7653 299.165 13.1C299.165 15.4347 298.655 17.5313 297.635 19.39C296.615 21.226 295.21 22.6653 293.419 23.708C291.629 24.728 289.623 25.238 287.401 25.238ZM287.401 23.164C289.169 23.164 290.756 22.756 292.161 21.94C293.567 21.124 294.677 19.9567 295.493 18.438C296.309 16.8967 296.717 15.1173 296.717 13.1C296.717 11.0827 296.309 9.31467 295.493 7.796C294.677 6.27733 293.567 5.11 292.161 4.294C290.756 3.478 289.169 3.07 287.401 3.07C285.633 3.07 284.047 3.478 282.641 4.294C281.236 5.11 280.125 6.27733 279.309 7.796C278.493 9.31467 278.085 11.0827 278.085 13.1C278.085 15.1173 278.493 16.8967 279.309 18.438C280.125 19.9567 281.236 21.124 282.641 21.94C284.047 22.756 285.633 23.164 287.401 23.164ZM335.582 1.54V25H333.202V6.266L324.838 25H323.104L314.74 6.334V25H312.36V1.54H314.876L323.954 21.872L333.032 1.54H335.582ZM352.202 3.172V12.046H361.212V14.018H352.202V23.028H362.232V25H349.822V1.2H362.232V3.172H352.202ZM393.679 25H391.299L378.141 5.008V25H375.761V1.234H378.141L391.299 21.192V1.234H393.679V25ZM421.816 1.234V3.206H415.22V25H412.84V3.206H406.21V1.234H421.816Z" fill="white"/>
</svg>
